<svg width="109" height="122" viewBox="0 0 109 122" fill="none" xmlns="http://www.w3.org/2000/svg">
<rect width="109" height="122" fill="#F5F5F5"/>
<rect width="1440" height="4274" transform="translate(-766 -1277)" fill="white"/>
<g clip-path="url(#clip0_157_2223)">
<rect width="1440" height="995.883" transform="translate(-769 -412)" fill="white"/>
<rect x="-769" y="-412" width="1440" height="982" fill="url(#paint0_linear_157_2223)"/>
<g clip-path="url(#clip1_157_2223)">
<rect x="-34" y="-50.6752" width="586.8" height="242.558" rx="6" fill="white"/>
<ellipse cx="54.8" cy="46.8752" rx="52.8" ry="58.0029" fill="#F5F7FE"/>
<g filter="url(#filter0_d_157_2223)">
<ellipse cx="54.8" cy="46.8753" rx="42" ry="46.1387" fill="white"/>
</g>
<path d="M66.06 38.54C65.92 38.52 65.78 38.52 65.64 38.54C62.54 38.44 60.08 35.9 60.08 32.78C60.08 29.6 62.66 27 65.86 27C69.04 27 71.64 29.58 71.64 32.78C71.62 35.9 69.16 38.44 66.06 38.54Z" fill="url(#paint1_linear_157_2223)"/>
<path d="M72.58 52.4C70.34 53.9 67.2 54.46 64.3 54.08C65.06 52.44 65.46 50.62 65.48 48.7C65.48 46.7 65.04 44.8 64.2 43.14C67.16 42.74 70.3 43.3 72.56 44.8C75.72 46.88 75.72 50.3 72.58 52.4Z" fill="url(#paint2_linear_157_2223)"/>
<path d="M43.88 38.54C44.02 38.52 44.16 38.52 44.3 38.54C47.4 38.44 49.86 35.9 49.86 32.78C49.86 29.58 47.28 27 44.08 27C40.9 27 38.32 29.58 38.32 32.78C38.32 35.9 40.78 38.44 43.88 38.54Z" fill="url(#paint3_linear_157_2223)"/>
<path d="M44.1 48.7C44.1 50.64 44.52 52.48 45.28 54.14C42.46 54.44 39.52 53.84 37.36 52.42C34.2 50.32 34.2 46.9 37.36 44.8C39.5 43.36 42.52 42.78 45.36 43.1C44.54 44.78 44.1 46.68 44.1 48.7Z" fill="url(#paint4_linear_157_2223)"/>
<path d="M55.24 54.74C55.08 54.72 54.9 54.72 54.72 54.74C51.04 54.62 48.1 51.6 48.1 47.88C48.12 44.08 51.18 41 55 41C58.8 41 61.88 44.08 61.88 47.88C61.86 51.6 58.94 54.62 55.24 54.74Z" fill="url(#paint5_linear_157_2223)"/>
<path d="M48.74 58.88C45.72 60.9 45.72 64.22 48.74 66.22C52.18 68.52 57.82 68.52 61.26 66.22C64.28 64.2 64.28 60.88 61.26 58.88C57.84 56.58 52.2 56.58 48.74 58.88Z" fill="url(#paint6_linear_157_2223)"/>
<ellipse cx="54.8" cy="46.8752" rx="52.8" ry="58.0029" fill="#F5F7FE"/>
<g filter="url(#filter1_d_157_2223)">
<ellipse cx="54.8" cy="46.5503" rx="42" ry="46.1387" fill="white"/>
</g>
<path d="M64.5 30.0617V26.9417C64.5 26.1217 63.82 25.4417 63 25.4417C62.18 25.4417 61.5 26.1217 61.5 26.9417V29.9417H48.5V26.9417C48.5 26.1217 47.82 25.4417 47 25.4417C46.18 25.4417 45.5 26.1217 45.5 26.9417V30.0617C40.1 30.5617 37.48 33.7817 37.08 38.5617C37.04 39.1417 37.52 39.6217 38.08 39.6217H71.92C72.5 39.6217 72.98 39.1217 72.92 38.5617C72.52 33.7817 69.9 30.5617 64.5 30.0617Z" fill="url(#paint7_linear_157_2223)"/>
<path d="M69 52.9417C64.58 52.9417 61 56.5217 61 60.9417C61 62.4417 61.42 63.8616 62.16 65.0616C63.54 67.3816 66.08 68.9417 69 68.9417C71.92 68.9417 74.46 67.3816 75.84 65.0616C76.58 63.8616 77 62.4417 77 60.9417C77 56.5217 73.42 52.9417 69 52.9417ZM73.14 60.0816L68.88 64.0217C68.6 64.2817 68.22 64.4216 67.86 64.4216C67.48 64.4216 67.1 64.2817 66.8 63.9817L64.82 62.0017C64.24 61.4217 64.24 60.4616 64.82 59.8816C65.4 59.3016 66.36 59.3016 66.94 59.8816L67.9 60.8417L71.1 57.8816C71.7 57.3216 72.66 57.3617 73.22 57.9617C73.78 58.5617 73.74 59.5016 73.14 60.0816Z" fill="url(#paint8_linear_157_2223)"/>
<path d="M71 42.6216H39C37.9 42.6216 37 43.5216 37 44.6216V56.9416C37 62.9416 40 66.9416 47 66.9416H56.86C58.24 66.9416 59.2 65.6016 58.76 64.3016C58.36 63.1416 58.02 61.8616 58.02 60.9416C58.02 54.8816 62.96 49.9416 69.02 49.9416C69.6 49.9416 70.18 49.9816 70.74 50.0816C71.94 50.2616 73.02 49.3216 73.02 48.1216V44.6416C73 43.5216 72.1 42.6216 71 42.6216ZM49.42 59.3616C49.04 59.7216 48.52 59.9416 48 59.9416C47.48 59.9416 46.96 59.7216 46.58 59.3616C46.22 58.9816 46 58.4616 46 57.9416C46 57.4216 46.22 56.9016 46.58 56.5216C46.78 56.3416 46.98 56.2016 47.24 56.1016C47.98 55.7816 48.86 55.9616 49.42 56.5216C49.78 56.9016 50 57.4216 50 57.9416C50 58.4616 49.78 58.9816 49.42 59.3616ZM49.42 52.3616C49.32 52.4416 49.22 52.5216 49.12 52.6016C49 52.6816 48.88 52.7416 48.76 52.7816C48.64 52.8416 48.52 52.8816 48.4 52.9016C48.26 52.9216 48.12 52.9416 48 52.9416C47.48 52.9416 46.96 52.7216 46.58 52.3616C46.22 51.9816 46 51.4616 46 50.9416C46 50.4216 46.22 49.9016 46.58 49.5216C47.04 49.0616 47.74 48.8416 48.4 48.9816C48.52 49.0016 48.64 49.0416 48.76 49.1016C48.88 49.1416 49 49.2016 49.12 49.2816C49.22 49.3616 49.32 49.4416 49.42 49.5216C49.78 49.9016 50 50.4216 50 50.9416C50 51.4616 49.78 51.9816 49.42 52.3616ZM56.42 52.3616C56.04 52.7216 55.52 52.9416 55 52.9416C54.48 52.9416 53.96 52.7216 53.58 52.3616C53.22 51.9816 53 51.4616 53 50.9416C53 50.4216 53.22 49.9016 53.58 49.5216C54.34 48.7816 55.68 48.7816 56.42 49.5216C56.78 49.9016 57 50.4216 57 50.9416C57 51.4616 56.78 51.9816 56.42 52.3616Z" fill="url(#paint9_linear_157_2223)"/>
</g>
</g>
<defs>
<filter id="filter0_d_157_2223" x="0.799988" y="0.736572" width="108" height="121.277" filterUnits="userSpaceOnUse" color-interpolation-filters="sRGB">
<feFlood flood-opacity="0" result="BackgroundImageFix"/>
<feColorMatrix in="SourceAlpha" type="matrix" values="0 0 0 0 0 0 0 0 0 0 0 0 0 0 0 0 0 0 127 0" result="hardAlpha"/>
<feMorphology radius="12" operator="erode" in="SourceAlpha" result="effect1_dropShadow_157_2223"/>
<feOffset dy="17"/>
<feGaussianBlur stdDeviation="12"/>
<feColorMatrix type="matrix" values="0 0 0 0 0.788777 0 0 0 0 0.816552 0 0 0 0 0.941539 0 0 0 1 0"/>
<feBlend mode="normal" in2="BackgroundImageFix" result="effect1_dropShadow_157_2223"/>
<feBlend mode="normal" in="SourceGraphic" in2="effect1_dropShadow_157_2223" result="shape"/>
</filter>
<filter id="filter1_d_157_2223" x="0.799988" y="0.411621" width="108" height="121.277" filterUnits="userSpaceOnUse" color-interpolation-filters="sRGB">
<feFlood flood-opacity="0" result="BackgroundImageFix"/>
<feColorMatrix in="SourceAlpha" type="matrix" values="0 0 0 0 0 0 0 0 0 0 0 0 0 0 0 0 0 0 127 0" result="hardAlpha"/>
<feMorphology radius="12" operator="erode" in="SourceAlpha" result="effect1_dropShadow_157_2223"/>
<feOffset dy="17"/>
<feGaussianBlur stdDeviation="12"/>
<feColorMatrix type="matrix" values="0 0 0 0 0.788777 0 0 0 0 0.816552 0 0 0 0 0.941539 0 0 0 1 0"/>
<feBlend mode="normal" in2="BackgroundImageFix" result="effect1_dropShadow_157_2223"/>
<feBlend mode="normal" in="SourceGraphic" in2="effect1_dropShadow_157_2223" result="shape"/>
</filter>
<linearGradient id="paint0_linear_157_2223" x1="-769" y1="-412" x2="-769" y2="570" gradientUnits="userSpaceOnUse">
<stop stop-color="white"/>
<stop offset="0.307292" stop-color="white"/>
<stop offset="0.984375" stop-color="#CEDCEE"/>
</linearGradient>
<linearGradient id="paint1_linear_157_2223" x1="60.08" y1="27" x2="73.0408" y2="28.8793" gradientUnits="userSpaceOnUse">
<stop stop-color="#477DC0"/>
<stop offset="1" stop-color="#CEDCEE"/>
</linearGradient>
<linearGradient id="paint2_linear_157_2223" x1="64.2" y1="43.0148" x2="76.2533" y2="44.6896" gradientUnits="userSpaceOnUse">
<stop stop-color="#477DC0"/>
<stop offset="1" stop-color="#CEDCEE"/>
</linearGradient>
<linearGradient id="paint3_linear_157_2223" x1="38.32" y1="27" x2="51.2593" y2="28.8729" gradientUnits="userSpaceOnUse">
<stop stop-color="#477DC0"/>
<stop offset="1" stop-color="#CEDCEE"/>
</linearGradient>
<linearGradient id="paint4_linear_157_2223" x1="34.99" y1="43.0144" x2="46.6516" y2="44.5772" gradientUnits="userSpaceOnUse">
<stop stop-color="#477DC0"/>
<stop offset="1" stop-color="#CEDCEE"/>
</linearGradient>
<linearGradient id="paint5_linear_157_2223" x1="48.1" y1="41" x2="63.549" y2="43.2427" gradientUnits="userSpaceOnUse">
<stop stop-color="#477DC0"/>
<stop offset="1" stop-color="#CEDCEE"/>
</linearGradient>
<linearGradient id="paint6_linear_157_2223" x1="46.475" y1="57.155" x2="65.0226" y2="61.3973" gradientUnits="userSpaceOnUse">
<stop stop-color="#477DC0"/>
<stop offset="1" stop-color="#CEDCEE"/>
</linearGradient>
<linearGradient id="paint7_linear_157_2223" x1="37.0776" y1="25.4417" x2="73.2679" y2="38.6846" gradientUnits="userSpaceOnUse">
<stop stop-color="#477DC0"/>
<stop offset="1" stop-color="#CEDCEE"/>
</linearGradient>
<linearGradient id="paint8_linear_157_2223" x1="61" y1="52.9417" x2="78.9401" y2="55.5384" gradientUnits="userSpaceOnUse">
<stop stop-color="#477DC0"/>
<stop offset="1" stop-color="#CEDCEE"/>
</linearGradient>
<linearGradient id="paint9_linear_157_2223" x1="37" y1="42.6216" x2="76.422" y2="51.073" gradientUnits="userSpaceOnUse">
<stop stop-color="#477DC0"/>
<stop offset="1" stop-color="#CEDCEE"/>
</linearGradient>
<clipPath id="clip0_157_2223">
<rect width="1440" height="995.883" fill="white" transform="translate(-769 -412)"/>
</clipPath>
<clipPath id="clip1_157_2223">
<rect width="1204" height="903" fill="white" transform="translate(-651 -333)"/>
</clipPath>
</defs>
</svg>
