<svg width="30" height="30" viewBox="0 0 30 30" fill="none" xmlns="http://www.w3.org/2000/svg">
<g id="Frame" clip-path="url(#clip0_845_457)">
<path id="Vector" d="M12.6136 17.8408C12.6136 17.4643 12.3084 17.159 11.9318 17.159H8.86364V13.5226H11.9318C12.3084 13.5226 12.6136 13.2174 12.6136 12.8408V10.3408C12.6136 8.86405 13.2003 7.44776 14.2445 6.40352C15.2888 5.35928 16.7051 4.77264 18.1818 4.77264H21.25V8.409H18.1818C17.6695 8.409 17.1781 8.61253 16.8158 8.97482C16.4535 9.33711 16.25 9.82847 16.25 10.3408V12.8408C16.25 13.2174 16.5553 13.5226 16.9318 13.5226H21.0586L20.1495 17.159H16.9318C16.5553 17.159 16.25 17.4643 16.25 17.8408V25.909H12.6136V17.8408Z" fill="white" stroke="white" stroke-width="1.36364" stroke-linecap="round" stroke-linejoin="round"/>
</g>
<defs>
<clipPath id="clip0_845_457">
<rect width="30" height="30" fill="white"/>
</clipPath>
</defs>
</svg>
