<svg width="24" height="24" viewBox="0 0 24 24" fill="none" xmlns="http://www.w3.org/2000/svg">
<g id="line/business/mail-line">
<path id="Vector" d="M5.12497 5.125H18.875C19.0776 5.125 19.2719 5.20548 19.4151 5.34874C19.5584 5.49199 19.6389 5.68629 19.6389 5.88889V18.1111C19.6389 18.3137 19.5584 18.508 19.4151 18.6513C19.2719 18.7945 19.0776 18.875 18.875 18.875H5.12497C4.92238 18.875 4.72808 18.7945 4.58482 18.6513C4.44156 18.508 4.36108 18.3137 4.36108 18.1111V5.88889C4.36108 5.68629 4.44156 5.49199 4.58482 5.34874C4.72808 5.20548 4.92238 5.125 5.12497 5.125ZM18.1111 8.36236L12.055 13.786L5.88886 8.34556V17.3472H18.1111V8.36236ZM6.27921 6.65278L12.0466 11.7418L17.7307 6.65278H6.27921Z" fill="#ACB4C3"/>
</g>
</svg>
