<svg width="24" height="24" viewBox="0 0 24 24" fill="none" xmlns="http://www.w3.org/2000/svg">
<path d="M17.2532 14.503C16.7528 14.5028 16.2576 14.6031 15.7967 14.7978C15.3358 14.9925 14.9187 15.2776 14.57 15.6364L10.2482 12.8586C10.5881 11.9869 10.5881 11.0192 10.2482 10.1474L14.57 7.36957C15.2192 8.03455 16.0922 8.4348 17.0197 8.49272C17.9472 8.55063 18.8632 8.26208 19.59 7.68302C20.3169 7.10395 20.8028 6.27562 20.9537 5.35862C21.1045 4.44162 20.9095 3.50128 20.4064 2.71991C19.9033 1.93855 19.128 1.37182 18.2308 1.12961C17.3336 0.887401 16.3784 0.986962 15.5504 1.40899C14.7224 1.83102 14.0807 2.54545 13.7495 3.41377C13.4184 4.2821 13.4215 5.24244 13.7582 6.10863L9.43628 8.88644C8.91584 8.35214 8.24789 7.98517 7.51782 7.83245C6.78774 7.67973 6.02871 7.7482 5.33774 8.0291C4.64678 8.31 4.05528 8.79057 3.63885 9.40938C3.22243 10.0282 3 10.7571 3 11.503C3 12.2489 3.22243 12.9778 3.63885 13.5966C4.05528 14.2154 4.64678 14.696 5.33774 14.9769C6.02871 15.2578 6.78774 15.3263 7.51782 15.1736C8.24789 15.0208 8.91584 14.6539 9.43628 14.1196L13.7582 16.8974C13.4686 17.6441 13.4258 18.4639 13.6359 19.2368C13.846 20.0097 14.2981 20.6949 14.9258 21.1923C15.5536 21.6897 16.3241 21.973 17.1245 22.0007C17.9249 22.0285 18.7132 21.7993 19.374 21.3466C20.0347 20.894 20.5331 20.2417 20.7963 19.4853C21.0595 18.7288 21.0736 17.908 20.8365 17.143C20.5994 16.378 20.1236 15.7089 19.4788 15.2339C18.834 14.7588 18.0541 14.5027 17.2532 14.503ZM17.2532 2.503C17.6982 2.503 18.1332 2.63496 18.5032 2.8822C18.8732 3.12943 19.1616 3.48083 19.3319 3.89197C19.5022 4.3031 19.5467 4.7555 19.4599 5.19196C19.3731 5.62841 19.1588 6.02933 18.8441 6.34399C18.5295 6.65866 18.1286 6.87295 17.6921 6.95977C17.2557 7.04659 16.8033 7.00203 16.3921 6.83173C15.981 6.66144 15.6296 6.37305 15.3823 6.00304C15.1351 5.63303 15.0032 5.19801 15.0032 4.753C15.0032 4.15627 15.2402 3.58397 15.6622 3.16201C16.0841 2.74006 16.6564 2.503 17.2532 2.503ZM6.75315 13.753C6.30815 13.753 5.87313 13.621 5.50312 13.3738C5.13311 13.1266 4.84472 12.7752 4.67443 12.364C4.50413 11.9529 4.45957 11.5005 4.54639 11.0641C4.63321 10.6276 4.8475 10.2267 5.16216 9.91201C5.47683 9.59735 5.87774 9.38305 6.3142 9.29624C6.75066 9.20942 7.20306 9.25398 7.61419 9.42428C8.02533 9.59457 8.37673 9.88296 8.62396 10.253C8.87119 10.623 9.00315 11.058 9.00315 11.503C9.00315 12.0997 8.7661 12.672 8.34415 13.094C7.92219 13.516 7.34989 13.753 6.75315 13.753ZM17.2532 20.503C16.8081 20.503 16.3731 20.371 16.0031 20.1238C15.6331 19.8766 15.3447 19.5252 15.1744 19.114C15.0041 18.7029 14.9596 18.2505 15.0464 17.8141C15.1332 17.3776 15.3475 16.9767 15.6622 16.662C15.9768 16.3473 16.3777 16.1331 16.8142 16.0462C17.2507 15.9594 17.7031 16.004 18.1142 16.1743C18.5253 16.3446 18.8767 16.633 19.124 17.003C19.3712 17.373 19.5032 17.808 19.5032 18.253C19.5032 18.8497 19.2661 19.422 18.8441 19.844C18.4222 20.266 17.8499 20.503 17.2532 20.503Z" fill="#282828"/>
</svg>
