<svg width="30" height="30" viewBox="0 0 30 30" fill="none" xmlns="http://www.w3.org/2000/svg">
<g id="Frame" clip-path="url(#clip0_845_462)">
<path id="Vector" d="M24.7687 6.48331C25.3854 6.31478 26.0162 6.14238 26.6518 5.9118C26.4082 6.48673 26.0885 7.13773 25.7729 7.75717C25.6568 7.98508 25.5403 8.21069 25.4306 8.42303C25.3002 8.6755 25.1795 8.90921 25.0807 9.10572C24.9885 9.28902 24.9085 9.45353 24.8507 9.58524C24.822 9.65062 24.7954 9.71585 24.775 9.7757C24.761 9.81687 24.7269 9.91819 24.7275 10.03C24.736 11.5686 24.5331 13.1011 24.1246 14.5845C22.7623 19.4322 19.221 22.6615 14.903 23.9159C11.6796 24.8516 7.99251 24.4374 4.44429 22.895C6.56974 22.5812 8.44089 21.6391 10.2772 20.4159C10.4295 20.3145 10.5142 20.138 10.4981 19.9557C10.4819 19.7734 10.3675 19.6146 10.1998 19.5414C7.71773 18.4594 6.21216 17.1022 5.32651 15.7029C4.44015 14.3025 4.15119 12.8226 4.16466 11.4577C4.17818 10.0889 4.49619 8.84426 4.81478 7.93683C4.91325 7.65633 5.01128 7.40949 5.09945 7.20279C7.52696 10.1789 11.0711 11.8504 15.0128 11.7496C15.2839 11.7427 15.5 11.5209 15.5 11.2498V9.99977H15.5L15.5 9.99292C15.4743 8.11958 16.6403 6.47454 18.4503 5.79677C20.3434 5.08791 22.1664 5.21661 23.3758 6.58139C23.5044 6.72657 23.7055 6.78423 23.8915 6.72933C24.18 6.64421 24.4727 6.56421 24.7687 6.48331Z" fill="white" stroke="white" stroke-linecap="round" stroke-linejoin="round"/>
</g>
<defs>
<clipPath id="clip0_845_462">
<rect width="30" height="30" fill="white"/>
</clipPath>
</defs>
</svg>
