<svg width="24" height="24" viewBox="0 0 24 24" fill="none" xmlns="http://www.w3.org/2000/svg">
<g id="line/user/user-smile-line">
<path id="Vector" d="M12 19.6389C7.78101 19.6389 4.36108 16.2189 4.36108 12C4.36108 7.78101 7.78101 4.36108 12 4.36108C16.2189 4.36108 19.6389 7.78101 19.6389 12C19.6389 16.2189 16.2189 19.6389 12 19.6389ZM12 18.1111C13.6207 18.1111 15.1751 17.4672 16.3212 16.3212C17.4672 15.1751 18.1111 13.6207 18.1111 12C18.1111 10.3792 17.4672 8.82482 16.3212 7.67876C15.1751 6.53271 13.6207 5.88886 12 5.88886C10.3792 5.88886 8.82482 6.53271 7.67876 7.67876C6.53271 8.82482 5.88886 10.3792 5.88886 12C5.88886 13.6207 6.53271 15.1751 7.67876 16.3212C8.82482 17.4672 10.3792 18.1111 12 18.1111ZM8.18053 12H9.70831C9.70831 12.6078 9.94975 13.1907 10.3795 13.6204C10.8093 14.0502 11.3922 14.2916 12 14.2916C12.6078 14.2916 13.1907 14.0502 13.6204 13.6204C14.0502 13.1907 14.2916 12.6078 14.2916 12H15.8194C15.8194 13.013 15.417 13.9844 14.7007 14.7007C13.9844 15.417 13.013 15.8194 12 15.8194C10.987 15.8194 10.0155 15.417 9.29922 14.7007C8.58293 13.9844 8.18053 13.013 8.18053 12Z" fill="#ACB4C3"/>
</g>
</svg>
